<svg xmlns="http://www.w3.org/2000/svg" width="756" height="500" viewBox="0 0 756 500">
<g>
<path d="M 204.90 397.73 C195.68,391.57 195.90,378.64 205.34,371.60 C209.23,368.69 217.37,368.83 222.31,371.88 C227.50,375.09 229.31,379.01 228.81,385.96 C228.13,395.33 223.12,400.00 213.74,400.00 C209.74,400.00 207.39,399.40 204.90,397.73 ZM 219.06 393.97 C220.11,393.40 221.66,391.63 222.49,390.02 C226.42,382.41 222.00,375.00 213.53,375.00 C209.96,375.00 208.35,375.56 206.45,377.45 C202.53,381.38 202.81,388.30 207.07,392.25 C210.23,395.18 215.40,395.93 219.06,393.97 ZM 306.00 377.50 C306.00,365.12 305.76,355.00 305.47,355.00 C305.17,355.00 302.71,356.12 300.00,357.50 C293.72,360.68 283.84,362.11 275.88,360.98 C263.29,359.20 253.42,351.62 248.78,340.15 L 246.50 334.50 L 246.23 237.25 L 245.95 140.00 L 257.96 140.00 L 269.96 140.00 L 270.57 142.75 C270.90,144.26 271.25,145.83 271.34,146.23 C271.43,146.62 273.52,145.63 276.00,144.02 C287.74,136.39 305.65,136.08 319.30,143.28 C345.63,157.15 351.22,201.07 329.67,224.66 C316.77,238.79 293.18,242.05 276.79,231.97 L 272.00 229.02 L 272.01 276.76 C272.01,306.09 272.40,325.91 273.03,328.17 C273.61,330.26 275.60,333.20 277.67,335.02 C281.14,338.06 281.61,338.19 288.40,337.83 C296.32,337.42 300.13,335.38 303.56,329.70 C305.35,326.75 305.52,324.07 305.80,295.25 L 306.11 264.00 L 319.05 264.00 L 332.00 264.00 L 332.00 332.00 L 332.00 400.00 L 319.00 400.00 L 306.00 400.00 L 306.00 377.50 ZM 327.00 331.50 L 327.00 269.00 L 319.00 269.00 L 311.00 269.00 L 310.99 296.75 C310.99,313.72 310.56,326.05 309.89,328.50 C309.19,331.08 307.10,334.15 304.00,337.16 C300.08,340.96 298.13,342.04 293.39,343.02 C281.50,345.49 270.71,340.08 268.09,330.33 C267.33,327.51 267.06,308.64 267.24,269.93 L 267.50 213.65 L 270.20 217.72 C276.72,227.57 285.11,232.02 297.44,232.16 C310.01,232.31 317.29,229.47 325.20,221.33 C345.08,200.88 339.86,159.63 315.85,147.43 C306.53,142.69 292.58,142.27 282.79,146.42 C277.85,148.51 272.75,153.11 269.31,158.55 C267.76,161.00 266.18,163.00 265.79,163.00 C265.40,163.00 264.95,159.06 264.79,154.25 L 264.50 145.50 L 258.28 145.20 C252.51,144.93 252.02,145.07 251.49,147.20 C251.18,148.47 251.06,190.68 251.22,241.00 L 251.51 332.50 L 253.78 338.14 C258.73,350.39 269.85,356.69 284.92,355.78 C295.03,355.18 301.39,351.97 306.63,344.82 L 310.50 339.55 L 310.77 366.77 L 311.03 394.00 L 319.02 394.00 L 327.00 394.00 L 327.00 331.50 ZM 598.40 393.11 C581.32,388.22 570.26,375.15 568.12,357.31 C567.70,353.86 567.65,350.56 568.01,349.98 C568.42,349.32 573.19,349.04 581.08,349.22 L 593.50 349.50 L 594.05 354.00 C594.82,360.27 597.35,364.54 602.20,367.75 C605.96,370.24 607.21,370.50 615.43,370.50 C622.41,370.50 625.29,370.07 627.94,368.63 C634.94,364.81 637.55,358.48 634.65,352.38 C632.45,347.79 627.85,345.78 608.50,340.99 C590.71,336.58 582.22,332.92 576.17,327.05 C567.17,318.31 563.99,305.23 567.53,291.46 C572.02,274.03 588.38,263.07 612.46,261.38 C633.61,259.89 650.20,266.55 659.23,280.16 C663.48,286.56 667.26,298.26 666.82,303.65 L 666.50 307.50 L 653.85 307.78 L 641.20 308.06 L 640.51 303.05 C639.61,296.56 635.50,290.90 629.59,288.05 C625.94,286.28 623.28,285.83 616.46,285.85 C600.86,285.89 593.00,290.63 593.00,300.00 C593.00,308.53 598.54,312.05 619.61,316.89 C626.82,318.55 635.12,320.82 638.06,321.93 C654.74,328.27 662.81,340.50 661.80,357.93 C660.78,375.45 649.20,388.59 630.46,393.47 C622.48,395.55 606.28,395.37 598.40,393.11 ZM 628.31 388.51 C640.57,385.31 649.79,378.18 654.16,368.50 C655.88,364.69 656.43,361.59 656.46,355.50 C656.49,348.57 656.10,346.70 653.50,341.50 C648.36,331.22 641.52,327.47 617.99,322.04 C602.29,318.41 596.36,316.00 591.97,311.47 C589.25,308.66 588.59,307.10 588.21,302.58 C587.61,295.27 588.38,292.69 592.57,288.05 C596.73,283.45 602.57,281.19 612.50,280.35 C628.88,278.95 641.78,286.04 645.06,298.22 L 646.08 302.00 L 653.67 302.00 L 661.27 302.00 L 660.66 297.51 C659.13,286.40 649.17,274.08 638.48,270.08 C612.58,260.39 579.99,270.47 573.44,290.19 C571.11,297.21 571.81,310.89 574.80,316.66 C579.46,325.68 589.33,330.99 610.79,336.04 C633.47,341.38 639.85,345.38 640.76,354.83 C641.40,361.54 639.61,366.32 634.94,370.32 C629.99,374.56 625.18,376.00 616.00,376.00 C606.77,376.00 602.01,374.56 596.96,370.23 C592.76,366.64 589.00,360.46 589.00,357.16 C589.00,354.85 586.46,354.03 579.22,354.01 C572.75,354.00 572.25,354.90 574.49,362.70 C578.49,376.59 588.93,386.12 603.27,388.95 C610.19,390.31 622.18,390.10 628.31,388.51 ZM 131.60 360.89 C121.64,359.57 113.90,355.77 107.97,349.27 C100.66,341.28 100.23,338.91 99.68,304.00 C99.31,280.74 98.88,273.44 97.62,269.50 C96.74,266.75 96.02,264.37 96.01,264.22 C96.00,264.07 101.73,264.07 108.74,264.22 C120.58,264.48 121.50,264.64 121.83,266.50 C122.46,269.98 123.62,270.20 127.54,267.54 C133.41,263.55 141.19,261.72 151.98,261.78 C164.32,261.86 171.59,264.39 178.14,270.89 C188.31,280.99 188.66,299.93 178.87,310.02 C171.57,317.53 162.02,321.00 140.02,324.09 C132.05,325.22 125.35,326.32 125.12,326.55 C124.11,327.56 127.77,334.49 130.32,336.39 C134.43,339.46 148.54,339.47 152.67,336.40 C155.38,334.40 157.29,331.52 158.41,327.75 C158.88,326.20 160.41,326.00 171.58,326.00 L 184.23 326.00 L 183.53 330.75 C180.35,352.46 159.48,364.57 131.60,360.89 ZM 160.76 352.58 C167.67,349.42 173.15,344.07 176.08,337.64 C179.02,331.17 178.88,331.00 170.75,331.03 L 163.50 331.06 L 160.76 335.58 C156.99,341.79 152.01,343.95 141.41,343.98 C134.89,344.00 132.46,343.55 128.91,341.71 C123.46,338.87 120.00,332.75 120.00,325.96 L 120.00 321.35 L 133.25 319.59 C140.54,318.62 149.73,317.17 153.68,316.38 C172.10,312.70 180.46,304.75 180.41,290.97 C180.36,274.29 169.05,266.04 147.89,267.24 C134.41,268.01 127.89,271.76 120.25,283.12 L 118.00 286.47 L 117.99 279.99 C117.96,269.03 117.84,268.87 110.12,269.21 C104.79,269.44 103.59,269.79 103.94,271.00 C104.19,271.83 104.64,286.67 104.94,304.00 L 105.50 335.50 L 108.41 340.75 C112.36,347.87 119.06,352.80 127.72,354.96 C129.80,355.48 136.68,355.79 143.00,355.67 C153.25,355.46 155.18,355.12 160.76,352.58 ZM 383.45 360.92 C375.29,359.90 366.80,355.69 360.48,349.53 C341.48,330.97 341.22,292.68 359.98,273.93 C372.90,261.00 393.51,257.93 410.29,266.42 L 417.09 269.86 L 416.79 221.18 C416.52,175.45 416.38,172.26 414.57,168.62 C411.12,161.65 400.77,159.07 392.53,163.11 C390.96,163.87 388.29,166.23 386.59,168.34 L 383.50 172.18 L 383.20 204.09 L 382.90 236.00 L 369.95 236.00 L 357.00 236.00 L 357.00 168.00 L 357.00 100.00 L 370.00 100.00 L 383.00 100.00 L 383.00 122.45 L 383.00 144.89 L 389.50 141.85 C401.38,136.29 417.15,137.01 427.22,143.57 C432.63,147.09 438.58,155.14 440.68,161.75 C442.39,167.15 442.50,173.42 442.50,263.50 L 442.50 359.50 L 431.29 359.76 C421.02,359.99 419.99,359.84 419.02,358.05 C418.45,356.97 418.03,355.73 418.10,355.29 C418.60,352.33 417.61,352.27 413.81,355.02 C406.80,360.10 395.13,362.37 383.45,360.92 ZM 403.46 354.10 C410.58,351.60 414.99,348.12 419.67,341.32 L 423.50 335.74 L 423.79 344.92 L 424.08 354.09 L 430.79 353.79 L 437.50 353.50 L 437.26 262.00 C437.10,203.16 436.64,168.73 435.97,165.53 C434.64,159.18 429.97,151.91 425.22,148.77 C419.56,145.03 414.27,143.65 405.74,143.70 C395.16,143.75 386.93,147.64 381.75,155.05 C379.79,157.84 378.00,159.76 377.76,159.31 C377.52,158.87 377.26,146.57 377.19,132.00 L 377.04 105.50 L 369.77 105.50 L 362.50 105.50 L 362.50 168.00 L 362.50 230.50 L 368.86 230.84 C372.42,231.02 375.69,230.71 376.27,230.13 C376.94,229.46 377.25,221.47 377.13,207.79 C376.83,173.16 378.55,165.64 388.18,159.26 C391.93,156.78 393.22,156.50 401.08,156.50 C409.32,156.50 410.02,156.67 413.58,159.55 C415.66,161.23 418.29,164.38 419.43,166.55 C421.44,170.39 421.51,172.06 421.77,228.50 L 422.05 286.50 L 419.39 282.50 C411.66,270.89 405.17,267.52 390.50,267.51 C381.58,267.50 379.82,267.81 374.27,270.38 C357.29,278.22 348.02,300.10 352.35,322.10 C355.65,338.88 363.98,349.03 378.95,354.55 C384.42,356.57 397.10,356.33 403.46,354.10 ZM 502.00 361.36 C488.27,359.36 479.71,355.45 471.68,347.54 C452.31,328.46 452.31,294.19 471.67,275.29 C481.19,266.00 492.71,261.64 507.50,261.74 C536.21,261.94 556.00,282.46 556.00,312.03 C556.00,339.03 537.50,359.27 511.00,361.24 C507.42,361.51 503.38,361.56 502.00,361.36 ZM 523.00 353.47 C540.28,346.52 551.00,330.46 551.00,311.50 C551.00,292.46 540.28,276.40 523.00,269.56 C517.22,267.27 504.05,266.43 497.00,267.90 C478.66,271.71 465.61,285.89 463.00,304.83 C459.92,327.13 471.38,346.57 491.86,353.75 C497.54,355.74 499.94,356.02 508.50,355.67 C514.99,355.41 520.08,354.64 523.00,353.47 ZM 201.00 311.85 L 201.00 264.00 L 214.01 264.00 L 227.02 264.00 L 226.76 311.75 L 226.50 359.50 L 213.75 359.60 L 201.00 359.70 L 201.00 311.85 ZM 221.00 311.50 L 221.00 269.00 L 213.50 269.00 L 206.00 269.00 L 206.00 311.50 L 206.00 354.00 L 213.50 354.00 L 221.00 354.00 L 221.00 311.50 ZM 497.50 237.35 C484.70,234.69 476.93,230.70 469.66,223.08 C460.50,213.48 456.00,201.98 456.00,188.18 C456.00,173.69 461.22,160.91 470.92,151.66 C480.40,142.62 492.37,137.98 506.00,138.07 C543.00,138.32 565.67,175.85 549.92,210.80 C546.53,218.31 537.12,228.12 529.28,232.30 C521.03,236.71 505.94,239.11 497.50,237.35 ZM 521.00 229.86 C540.70,223.12 552.49,202.35 549.00,180.53 C545.10,156.06 523.58,140.53 498.50,144.07 C468.67,148.28 452.61,180.19 465.97,208.74 C474.99,228.03 499.20,237.33 521.00,229.86 ZM 593.00 237.29 C574.61,234.10 564.62,224.09 561.54,205.75 L 560.91 202.00 L 573.95 202.00 C586.53,202.00 587.00,202.08 587.00,204.10 C587.00,210.33 594.09,215.24 603.22,215.33 C613.16,215.42 619.23,211.47 617.51,206.03 C616.58,203.10 612.07,201.34 598.10,198.44 C574.88,193.62 566.00,185.63 566.00,169.55 C566.00,143.81 599.68,129.28 626.07,143.63 C634.78,148.37 640.43,157.15 642.56,169.25 L 643.22 173.00 L 630.58 173.00 C621.34,173.00 617.83,172.66 617.55,171.75 C617.34,171.06 616.90,169.29 616.58,167.82 C615.32,162.06 605.27,158.44 597.58,160.97 C590.73,163.23 588.98,170.30 594.64,172.88 C596.12,173.55 603.04,175.39 610.03,176.97 C629.38,181.33 638.04,186.79 641.44,196.77 C646.29,211.01 639.95,225.88 625.99,233.00 C618.23,236.97 602.73,238.98 593.00,237.29 ZM 617.52 230.46 C623.99,228.68 630.83,224.07 634.00,219.36 C636.21,216.07 636.50,214.60 636.50,206.50 C636.50,198.00 636.30,197.08 633.69,193.66 C629.78,188.53 622.60,185.21 609.39,182.41 C595.70,179.51 590.59,177.57 587.98,174.25 C584.07,169.28 586.27,160.46 592.18,157.41 C596.46,155.19 605.84,154.46 610.44,155.98 C615.15,157.54 620.60,162.27 621.41,165.51 C622.01,167.89 622.38,168.00 629.59,168.00 C636.95,168.00 637.12,167.95 636.45,165.75 C634.04,157.86 629.59,151.77 623.50,148.00 C617.84,144.50 606.99,142.76 598.37,143.96 C579.90,146.52 568.90,158.93 571.89,173.82 C574.30,185.83 579.85,189.45 602.91,194.04 C608.64,195.18 614.57,196.76 616.08,197.54 C625.35,202.33 625.24,213.72 615.88,218.56 C611.87,220.63 601.40,221.47 596.40,220.12 C590.63,218.55 585.84,215.06 583.50,210.72 L 581.50 207.01 L 574.23 207.00 L 566.96 207.00 L 567.60 209.75 C569.61,218.43 575.59,225.60 583.86,229.26 C591.69,232.73 607.27,233.28 617.52,230.46 ZM 69.43 232.28 C70.63,228.93 87.20,186.07 95.05,166.00 C96.67,161.88 102.41,147.02 107.82,133.00 L 117.65 107.50 L 131.00 107.50 L 144.35 107.50 L 146.12 112.00 C147.10,114.47 150.33,122.80 153.31,130.50 C156.29,138.20 163.72,157.32 169.84,173.00 C191.50,228.54 193.72,234.51 193.03,235.28 C192.65,235.71 186.30,235.93 178.92,235.78 L 165.50 235.50 L 161.07 223.73 L 156.64 211.97 L 130.65 212.23 L 104.67 212.50 L 100.46 224.00 L 96.25 235.50 L 82.16 235.78 L 68.07 236.05 L 69.43 232.28 ZM 91.61 230.26 C92.23,229.84 94.53,224.55 96.74,218.50 L 100.75 207.50 L 130.33 207.24 C158.63,206.98 159.96,207.05 160.94,208.89 C161.51,209.95 163.39,214.79 165.13,219.66 C166.87,224.52 168.70,229.03 169.20,229.67 C170.09,230.81 184.30,231.03 185.42,229.92 C185.70,229.63 183.23,222.45 179.92,213.95 C176.61,205.45 170.35,189.27 166.01,178.00 C161.66,166.73 154.14,147.38 149.29,135.00 L 140.47 112.50 L 130.99 112.23 L 121.50 111.97 L 113.62 132.73 C109.28,144.16 102.20,162.50 97.88,173.50 C81.14,216.16 76.25,229.52 77.17,230.09 C78.60,230.99 90.34,231.13 91.61,230.26 ZM 200.00 188.00 L 200.00 140.00 L 213.00 140.00 L 226.00 140.00 L 226.00 188.00 L 226.00 236.00 L 213.00 236.00 L 200.00 236.00 L 200.00 188.00 ZM 219.75 230.24 C221.57,229.58 221.57,146.42 219.75,145.76 C217.17,144.83 207.15,144.94 206.55,145.91 C206.10,146.65 205.70,204.62 205.98,229.55 C206.00,230.81 207.19,231.07 212.25,230.90 C215.69,230.79 219.06,230.49 219.75,230.24 ZM 205.24 128.01 C198.18,123.70 195.70,113.29 200.03,106.18 C202.71,101.78 209.84,98.58 215.31,99.31 C229.34,101.20 233.79,119.64 222.12,127.56 C217.52,130.69 209.97,130.89 205.24,128.01 ZM 220.50 122.00 C223.28,119.39 224.08,115.86 222.87,111.48 C221.72,107.31 217.82,104.75 212.74,104.82 C205.97,104.92 201.91,110.75 203.52,118.07 C204.96,124.63 215.18,127.00 220.50,122.00 ZM 288.33 218.99 C271.94,215.61 262.48,197.25 267.35,178.27 C271.26,163.03 281.79,155.09 296.53,156.26 C311.41,157.44 320.86,168.41 321.79,185.59 C322.33,195.46 320.47,202.52 315.57,209.14 C309.84,216.89 298.32,221.06 288.33,218.99 ZM 303.50 212.11 C308.27,209.91 311.00,207.06 314.16,201.00 C316.09,197.29 316.49,195.01 316.46,188.00 C316.41,174.19 311.09,165.75 300.29,162.32 C295.87,160.91 294.28,160.84 289.67,161.87 C278.35,164.41 271.74,174.08 271.74,188.11 C271.74,200.24 276.94,209.26 286.03,212.89 C290.13,214.52 299.14,214.12 303.50,212.11 ZM 120.00 304.28 C120.00,287.19 129.82,277.98 148.00,278.03 C159.97,278.06 166.00,283.03 166.00,292.87 C166.00,295.96 165.28,297.75 162.99,300.36 C158.94,304.97 154.93,306.40 139.00,308.92 C131.57,310.09 124.26,311.30 122.75,311.60 L 120.00 312.16 L 120.00 304.28 ZM 141.55 303.13 C154.32,300.97 158.23,299.27 159.96,295.10 C165.90,280.76 136.08,278.43 127.81,292.59 C126.82,294.29 125.72,297.77 125.37,300.34 C124.73,304.96 124.75,305.00 127.61,304.99 C129.20,304.99 135.47,304.15 141.55,303.13 ZM 389.72 342.95 C376.21,340.72 367.00,328.34 367.00,312.41 C367.00,301.00 369.99,293.05 376.64,286.81 C387.01,277.06 405.54,277.87 414.86,288.49 C420.71,295.16 422.37,300.21 422.44,311.50 C422.48,320.24 422.16,322.19 419.90,327.00 C414.10,339.32 403.07,345.15 389.72,342.95 ZM 407.19 334.43 C410.00,332.46 412.48,329.46 414.39,325.73 C416.91,320.79 417.30,318.93 417.30,311.75 C417.30,301.71 415.17,296.17 409.29,290.87 C404.19,286.28 399.15,284.59 392.80,285.34 C385.40,286.21 380.04,289.64 376.31,295.88 C371.02,304.72 370.70,316.56 375.50,325.97 C380.01,334.83 385.91,338.19 396.21,337.73 C401.77,337.49 403.64,336.93 407.19,334.43 ZM 496.11 341.29 C489.68,339.02 482.73,331.76 480.03,324.50 C477.12,316.69 477.50,302.85 480.80,296.38 C486.17,285.86 493.44,280.93 504.62,280.21 C513.76,279.62 519.48,281.56 525.78,287.36 C531.25,292.41 533.57,296.89 535.02,305.21 C537.13,317.34 533.46,328.70 524.95,336.35 C517.65,342.92 506.25,344.87 496.11,341.29 ZM 513.75 336.83 C523.26,334.44 530.02,323.86 530.00,311.38 C530.00,299.97 525.55,291.95 516.83,287.60 C507.52,282.96 497.15,284.86 490.13,292.48 C480.73,302.67 480.74,320.34 490.14,330.54 C496.30,337.21 504.04,339.28 513.75,336.83 ZM 499.33 218.98 C493.60,217.81 489.58,215.58 485.06,211.06 C474.14,200.14 474.15,175.85 485.07,164.93 C491.22,158.78 496.28,156.68 505.00,156.63 C513.81,156.59 519.76,158.83 525.16,164.23 C531.03,170.10 533.36,176.18 533.81,186.75 C534.16,195.32 533.98,196.45 531.23,202.32 C527.86,209.53 523.31,214.36 517.45,216.96 C512.32,219.24 504.71,220.09 499.33,218.98 ZM 515.69 211.91 C523.80,207.98 529.00,198.65 529.00,188.00 C529.00,172.65 519.31,161.97 505.43,162.02 C497.98,162.05 492.37,164.51 488.15,169.62 C477.48,182.52 481.47,205.77 495.43,212.11 C501.09,214.68 510.15,214.59 515.69,211.91 ZM 107.00 191.75 C107.01,191.06 108.39,186.90 110.07,182.50 C111.76,178.10 114.21,171.57 115.52,168.00 C125.92,139.63 128.59,133.50 130.65,133.20 C131.94,133.01 133.02,133.59 133.45,134.70 C136.17,141.62 153.89,188.94 154.45,190.75 L 155.13 193.00 L 131.07 193.00 C112.48,193.00 107.00,192.72 107.00,191.75 ZM 146.47 186.86 C147.13,186.20 132.57,146.17 131.15,144.75 C130.71,144.31 127.96,150.37 125.03,158.22 C122.11,166.08 118.47,175.63 116.94,179.47 C115.40,183.30 114.35,186.75 114.59,187.14 C115.13,188.02 145.58,187.75 146.47,186.86 Z" fill="rgba(0,0,0,1)"/>
</g>
</svg>